<svg width="28" height="28" viewBox="0 0 28 28" fill="none" xmlns="http://www.w3.org/2000/svg">
<path fill-rule="evenodd" clip-rule="evenodd" d="M4.85089 16.5814C5.03314 16.2169 5.47634 16.0692 5.84083 16.2514L14.4381 20.55C14.5073 20.5847 14.5889 20.5847 14.6581 20.55L23.2554 16.2514C23.6199 16.0692 24.0631 16.2169 24.2453 16.5814C24.4276 16.9459 24.2798 17.3891 23.9153 17.5714L15.3181 21.8699C14.8334 22.1123 14.2629 22.1123 13.7781 21.8699L5.18087 17.5714C4.81638 17.3891 4.66864 16.9459 4.85089 16.5814ZM5.84083 19.8663C5.47634 19.6841 5.03314 19.8318 4.85089 20.1963C4.66864 20.5608 4.81638 21.004 5.18087 21.1863L13.7781 25.4848C14.2629 25.7273 14.8334 25.7273 15.3181 25.4848L23.9153 21.1863C24.2798 21.004 24.4276 20.5608 24.2453 20.1963C24.0631 19.8318 23.6199 19.6841 23.2554 19.8663L14.6581 24.165C14.5889 24.1996 14.5073 24.1996 14.4381 24.165L5.84083 19.8663Z" fill="#F1DE2C"/>
<path fill-rule="evenodd" clip-rule="evenodd" d="M5.84083 11.8595C5.47634 11.6773 5.03314 11.825 4.85089 12.1895C4.66864 12.554 4.81638 12.9972 5.18087 13.1795L13.7781 17.4781C14.2629 17.7205 14.8334 17.7205 15.3181 17.4781L23.9153 13.1795C24.2798 12.9972 24.4276 12.554 24.2453 12.1895C24.0631 11.825 23.6199 11.6773 23.2554 11.8595L14.6581 16.1582C14.5889 16.1928 14.5073 16.1928 14.4381 16.1582L5.84083 11.8595Z" fill="#F1DE2C"/>
<path d="M17.0783 9.7538C17.0846 8.89725 16.746 8.21983 16.0706 7.74144C15.549 7.37311 14.916 7.18097 14.3037 6.99634C13.0282 6.60968 12.6582 6.40601 12.6582 5.79608C12.6582 5.11667 13.5412 4.87494 14.297 4.87494C14.8475 4.87494 15.4808 5.04609 15.8741 5.29974L16.6539 4.09213C16.1399 3.75889 15.4363 3.5316 14.7416 3.46105V2.33337H13.3032V3.54012C12.0246 3.82139 11.2192 4.65707 11.2192 5.79608C11.2192 6.59377 11.5507 7.22639 12.2025 7.67258C12.6983 8.01322 13.303 8.19613 13.8871 8.37322C15.1381 8.75136 15.6462 8.98179 15.6404 9.74489L15.6404 9.75052C15.6404 10.391 14.7916 10.6187 14.0644 10.6187C13.3775 10.6187 12.6305 10.3177 12.2071 9.87006L11.1621 10.8585C11.6983 11.4256 12.4774 11.8266 13.3032 11.9838V13.1603H14.7416V12.0091C16.1624 11.8057 17.0769 10.9503 17.0783 9.7538Z" fill="#F1DE2C"/>
</svg>
