<svg width="24" height="24" viewBox="0 0 24 24" fill="none" xmlns="http://www.w3.org/2000/svg">
<path d="M21.548 3.88621L12.3605 0.071666C12.1303 -0.0238652 11.8716 -0.0239121 11.6415 0.071666L2.45399 3.88621C2.10407 4.03153 1.87598 4.37315 1.87598 4.75204V9.38915C1.87598 15.7741 5.73515 21.5176 11.6467 23.9305C11.8738 24.0232 12.1281 24.0232 12.3553 23.9305C18.2667 21.5176 22.126 15.7742 22.126 9.38915V4.75204C22.126 4.37315 21.8979 4.03153 21.548 3.88621ZM20.251 9.38915C20.251 14.817 17.0635 19.8138 12.001 22.0442C7.07376 19.8734 3.75098 14.9641 3.75098 9.38915V5.37792L12.001 1.95257L20.251 5.37792V9.38915ZM10.9648 12.5492L14.9943 8.51967C15.3604 8.15357 15.954 8.15353 16.3201 8.51967C16.6863 8.88581 16.6862 9.47939 16.3201 9.84548L11.6277 14.5379C11.2615 14.9041 10.6679 14.9039 10.3019 14.5379L7.68182 11.9179C7.31568 11.5517 7.31568 10.9582 7.68182 10.5921C8.04796 10.226 8.64154 10.2259 9.00763 10.5921L10.9648 12.5492Z" fill="#F1DE2C"/>
</svg>
